<?xml version="1.0" standalone="yes"?>

<svg version="1.1" viewBox="0.0 0.0 384.0 384.0" fill="none" stroke="none" stroke-linecap="square" stroke-miterlimit="10" xmlns="http://www.w3.org/2000/svg" xmlns:xlink="http://www.w3.org/1999/xlink"><clipPath id="g2d57ae080b_0_0.0"><path d="m0 0l384.0 0l0 384.0l-384.0 0l0 -384.0z" clip-rule="nonzero"></path></clipPath><g clip-path="url(#g2d57ae080b_0_0.0)"><path fill="#000000" fill-opacity="0.0" d="m0 0l384.0 0l0 384.0l-384.0 0z" fill-rule="evenodd"></path><path fill="#38761d" d="m0 92.12694l0 0c0 -26.41742 21.415554 -47.832973 47.832977 -47.832973l288.33405 0c12.686096 0 24.8526 5.0395317 33.82303 14.009953c8.970428 8.970421 14.009949 21.136932 14.009949 33.82302l0 191.32619c0 26.41742 -21.415558 47.832977 -47.832977 47.832977l-288.33405 0l0 0c-26.417423 0 -47.832977 -21.415558 -47.832977 -47.832977z" fill-rule="evenodd"></path><path stroke="#595959" stroke-width="1.0" stroke-linejoin="round" stroke-linecap="butt" d="m0 92.12694l0 0c0 -26.41742 21.415554 -47.832973 47.832977 -47.832973l288.33405 0c12.686096 0 24.8526 5.0395317 33.82303 14.009953c8.970428 8.970421 14.009949 21.136932 14.009949 33.82302l0 191.32619c0 26.41742 -21.415558 47.832977 -47.832977 47.832977l-288.33405 0l0 0c-26.417423 0 -47.832977 -21.415558 -47.832977 -47.832977z" fill-rule="evenodd"></path><path fill="#eeeeee" d="m71.80389 238.04768l4.490158 -4.490158l71.84252 71.84253l-4.490158 4.490143zm8.980316 -8.980316l8.980316 -8.980316l71.84252 71.842514l-8.980316 8.980316zm13.470474 -13.470474l79.124016 -79.12401l-35.921265 -35.921265l143.68506 0l0 143.68504l-35.92128 -35.921265l-79.12401 79.12402z" fill-rule="evenodd"></path><path stroke="#595959" stroke-width="1.0" stroke-linejoin="round" stroke-linecap="butt" d="m71.80389 238.04768l4.490158 -4.490158l71.84252 71.84253l-4.490158 4.490143zm8.980316 -8.980316l8.980316 -8.980316l71.84252 71.842514l-8.980316 8.980316zm13.470474 -13.470474l79.124016 -79.12401l-35.921265 -35.921265l143.68506 0l0 143.68504l-35.92128 -35.921265l-79.12401 79.12402z" fill-rule="evenodd"></path></g></svg>

